<?xml version="1.0" standalone="no"?>
<!DOCTYPE svg PUBLIC "-//W3C//DTD SVG 20010904//EN"
 "http://www.w3.org/TR/2001/REC-SVG-20010904/DTD/svg10.dtd">
<svg version="1.0" xmlns="http://www.w3.org/2000/svg"
 width="233.000000pt" height="216.000000pt" viewBox="0 0 233.000000 216.000000"
 preserveAspectRatio="xMidYMid meet">

<g transform="translate(0.000000,216.000000) scale(0.100000,-0.100000)"
fill="#000000" stroke="none">
<path d="M1006 2129 c-148 -22 -312 -85 -437 -169 -88 -60 -219 -189 -279
-276 -117 -169 -178 -349 -187 -555 -9 -206 24 -367 114 -541 58 -114 120
-195 225 -293 100 -94 213 -164 340 -212 149 -56 214 -67 388 -67 134 1 168 5
253 27 111 29 254 94 348 157 86 58 223 198 284 289 61 92 119 227 148 340 31
124 31 368 0 492 -90 357 -345 639 -687 758 -156 55 -348 74 -510 50z m114
-419 l0 -110 50 0 49 0 3 108 3 107 68 3 67 3 0 -114 0 -115 47 -7 c194 -29
285 -112 285 -260 1 -74 -25 -129 -79 -174 -27 -22 -33 -31 -20 -31 27 0 89
-35 119 -67 41 -43 58 -94 58 -172 0 -188 -114 -294 -338 -316 l-72 -8 0 -113
0 -114 -70 0 -70 0 0 115 0 115 -55 0 -55 0 0 -115 0 -115 -70 0 -70 0 0 115
0 115 -135 0 -135 0 1 28 c0 15 6 52 12 82 l12 55 62 3 c97 5 93 -9 93 358 0
372 5 356 -109 362 l-71 4 0 69 0 69 140 0 140 0 0 115 0 115 70 0 70 0 0
-110z"/>
<path d="M1120 1300 l0 -143 88 6 c48 4 103 11 123 17 140 39 140 201 0 240
-20 6 -75 13 -123 17 l-88 6 0 -143z"/>
<path d="M1120 871 l0 -151 58 0 c84 0 189 18 238 39 112 50 110 182 -4 234
-38 17 -71 22 -169 25 l-123 4 0 -151z"/>
</g>
</svg>
